HIERARCHY
ROOT joint_0
{
	OFFSET 0.000000 0.000000 0.000000
	CHANNELS 6 Xposition Yposition Zposition Zrotation Yrotation Xrotation 
	JOINT joint_1
	{
		OFFSET 6.004005 -1.946999 100.587036
		CHANNELS 3 Zrotation Yrotation Xrotation
		JOINT joint_2
		{
			OFFSET -4.601006 -0.824997 91.925903
			CHANNELS 3 Zrotation Yrotation Xrotation
			JOINT joint_3
			{
				OFFSET -5.420998 -1.130005 91.774048
				CHANNELS 3 Zrotation Yrotation Xrotation
				JOINT joint_4
				{
					OFFSET 4.308998 -3.777992 123.473999
					CHANNELS 3 Zrotation Yrotation Xrotation
					JOINT joint_5
					{
						OFFSET 25.565002 -6.305008 79.437988
						CHANNELS 3 Zrotation Yrotation Xrotation
						End Site
						{
							OFFSET 0.000000 0.000000 0.000000
						}
					}
				}
				JOINT joint_6
				{
					OFFSET -1.750000 -28.655998 68.557983
					CHANNELS 3 Zrotation Yrotation Xrotation
					JOINT joint_7
					{
						OFFSET -17.692001 -116.544006 -17.244019
						CHANNELS 3 Zrotation Yrotation Xrotation
						JOINT joint_8
						{
							OFFSET 27.063004 -23.640991 -266.895020
							CHANNELS 3 Zrotation Yrotation Xrotation
							JOINT joint_9
							{
								OFFSET 40.722000 -15.761017 -232.488953
								CHANNELS 3 Zrotation Yrotation Xrotation
								End Site
								{
									OFFSET 0.000000 0.000000 0.000000
								}
							}
						}
					}
				}
				JOINT joint_10
				{
					OFFSET 6.593002 24.457001 69.892944
					CHANNELS 3 Zrotation Yrotation Xrotation
					JOINT joint_11
					{
						OFFSET 24.311996 114.920002 -19.872925
						CHANNELS 3 Zrotation Yrotation Xrotation
						JOINT joint_12
						{
							OFFSET 21.081001 15.319000 -268.037964
							CHANNELS 3 Zrotation Yrotation Xrotation
							JOINT joint_13
							{
								OFFSET 27.794006 -8.947001 -234.744080
								CHANNELS 3 Zrotation Yrotation Xrotation
								End Site
								{
									OFFSET 0.000000 0.000000 0.000000
								}
							}
						}
					}
				}
			}
		}
	}
	JOINT joint_14
	{
		OFFSET -6.627998 -80.520004 -98.790039
		CHANNELS 3 Zrotation Yrotation Xrotation
		JOINT joint_15
		{
			OFFSET -43.638000 -13.751999 -502.538971
			CHANNELS 3 Zrotation Yrotation Xrotation
			JOINT joint_16
			{
				OFFSET -39.532999 -9.912994 -398.071007
				CHANNELS 3 Zrotation Yrotation Xrotation
				JOINT joint_17
				{
					OFFSET 174.940004 -34.660995 -75.688002
					CHANNELS 3 Zrotation Yrotation Xrotation
					End Site
					{
						OFFSET 0.000000 0.000000 0.000000
					}
				}
			}
		}
	}
	JOINT joint_18
	{
		OFFSET 12.591003 79.842003 -98.765015
		CHANNELS 3 Zrotation Yrotation Xrotation
		JOINT joint_19
		{
			OFFSET -39.080002 -1.297001 -503.101013
			CHANNELS 3 Zrotation Yrotation Xrotation
			JOINT joint_20
			{
				OFFSET -51.570000 -0.514000 -396.815987
				CHANNELS 3 Zrotation Yrotation Xrotation
				JOINT joint_21
				{
					OFFSET 178.987999 -11.521999 -73.244003
					CHANNELS 3 Zrotation Yrotation Xrotation
					End Site
					{
						OFFSET 0.000000 0.000000 0.000000
					}
				}
			}
		}
	}
}
MOTION
Frames: 13
Frame Time: 0.016667
77.750000 -129.304000 1094.750000 -2.086155 0.197422 -1.766823 0.113989 -1.033831 0.802879 0.068582 0.049815 -0.284042 0.096048 -0.049149 0.195548 -0.055127 -0.091101 0.148955 0.000000 0.000000 0.000000 2.293551 -0.223484 1.688193 -0.153685 0.521602 -0.835068 -0.146618 0.796670 -0.527059 0.000000 0.000000 0.000000 -2.693517 0.402589 1.162205 0.240294 1.293503 -0.646198 0.499065 -0.452991 3.908611 0.000000 0.000000 0.000000 0.787205 -0.750335 -0.515118 0.511196 2.998920 1.462512 0.719013 -0.473478 0.216560 0.000000 0.000000 0.000000 1.734395 -2.286639 3.460697 1.940433 4.640324 0.586412 1.943783 -1.137335 0.719293 0.000000 0.000000 0.000000 
78.595000 -129.946000 1094.858030 -1.925579 0.460083 -1.729934 0.279750 -1.135248 0.654115 0.244539 0.062483 -0.244680 0.267208 -0.086261 0.164970 -0.103135 -0.298262 0.247507 0.000000 0.000000 0.000000 1.563756 -0.026306 1.939688 -0.177265 0.684212 -1.045163 -0.088283 0.545627 -0.292004 0.000000 0.000000 0.000000 -2.876548 0.420453 1.151157 0.261741 1.318970 -0.526751 0.498298 -0.602988 3.876826 0.000000 0.000000 0.000000 0.736158 -0.893788 -0.532935 0.454839 2.847914 1.507102 0.664679 -0.443283 0.199102 0.000000 0.000000 0.000000 1.682297 -2.492358 3.477407 1.894261 4.540252 0.528195 1.892372 -1.121073 0.699423 0.000000 0.000000 0.000000 
81.613000 -131.095000 1095.230960 -1.622435 1.188820 -1.624049 0.415376 -1.422253 0.431657 0.400367 0.162943 -0.128682 0.407422 -0.233978 0.071952 -0.150316 -1.133347 0.189905 0.000000 0.000000 0.000000 1.495494 0.858108 1.399738 -0.175598 1.334185 -0.103100 -0.024695 -0.726827 -0.421895 0.000000 0.000000 0.000000 -2.541954 0.519957 1.853409 0.294631 1.623937 -1.040698 0.495162 -1.335196 3.663198 0.000000 0.000000 0.000000 0.668074 -1.242659 -0.641331 0.371062 2.364511 1.620607 0.579805 -0.330858 0.184760 0.000000 0.000000 0.000000 1.569400 -2.995947 3.479883 1.792256 4.220079 0.398190 1.777107 -1.017459 0.659186 0.000000 0.000000 0.000000 
86.329000 -132.670000 1095.822020 -1.192844 2.274168 -1.454492 0.540455 -1.833768 0.151194 0.553879 0.322745 0.052952 0.535836 -0.472069 -0.086676 -0.189833 -2.470170 -0.021784 0.000000 0.000000 0.000000 1.828844 2.266156 0.415675 -0.166178 2.378065 1.633346 0.039520 -2.821640 -0.845508 0.000000 0.000000 0.000000 -1.771568 0.677380 3.062125 0.333965 2.103315 -1.939627 0.480253 -2.478896 3.230691 0.000000 0.000000 0.000000 0.582348 -1.732483 -0.820016 0.263608 1.599131 1.782780 0.466518 -0.132472 0.175157 0.000000 0.000000 0.000000 1.404769 -3.725037 3.470242 1.642607 3.722897 0.211977 1.607951 -0.829716 0.602310 0.000000 0.000000 0.000000 
91.893000 -134.447010 1096.433960 -0.767906 3.553766 -1.268519 0.597571 -2.276290 -0.147291 0.638857 0.441754 0.199931 0.600635 -0.662300 -0.220160 -0.239282 -4.020344 -0.270952 0.000000 0.000000 0.000000 2.339121 3.488049 -0.250351 -0.170659 3.356918 3.087816 0.057469 -4.493309 -1.336773 0.000000 0.000000 0.000000 -1.009068 0.989784 4.246275 0.402231 2.722964 -2.734064 0.462766 -3.881233 2.717039 0.000000 0.000000 0.000000 0.484307 -2.458133 -0.985237 0.137446 0.962364 1.921898 0.335476 0.073152 0.159286 0.000000 0.000000 0.000000 1.261512 -4.601291 3.497605 1.525004 3.183582 -0.066792 1.457094 -0.590273 0.556092 0.000000 0.000000 0.000000 
97.912000 -136.300000 1096.938960 -0.447795 5.069476 -1.093679 0.521881 -2.771597 -0.460914 0.585312 0.468763 0.232972 0.542358 -0.724289 -0.250022 -0.334396 -5.750502 -0.428132 0.000000 0.000000 0.000000 3.072164 4.068641 -0.246000 -0.191748 3.969502 3.632589 0.011999 -4.860584 -1.706749 0.000000 0.000000 0.000000 -0.558268 1.658535 5.058505 0.552025 3.618774 -3.165220 0.465624 -5.892523 2.234237 0.000000 0.000000 0.000000 0.372923 -3.605526 -1.108013 -0.015987 0.649165 2.026571 0.183359 0.258953 0.130403 0.000000 0.000000 0.000000 1.193685 -5.640838 3.627966 1.509097 2.512203 -0.568095 1.373760 -0.254123 0.543536 0.000000 0.000000 0.000000 
104.700000 -138.314000 1097.410030 -0.182071 6.871705 -0.917692 0.334423 -3.326929 -0.778761 0.413665 0.440166 0.170592 0.376995 -0.740104 -0.205816 -0.473929 -7.773554 -0.507744 0.000000 0.000000 0.000000 4.128737 4.282305 0.121522 -0.219052 4.391621 3.688729 -0.075703 -4.382113 -2.022821 0.000000 0.000000 0.000000 -0.239059 2.683772 5.576827 0.758112 4.788105 -3.307496 0.483552 -8.570852 1.746346 0.000000 0.000000 0.000000 0.246728 -5.126021 -1.209312 -0.197427 0.498705 2.121941 0.006209 0.473640 0.096535 0.000000 0.000000 0.000000 1.178897 -6.858770 3.851953 1.569970 1.649356 -1.287907 1.334811 0.227156 0.558228 0.000000 0.000000 0.000000 
111.588000 -140.399000 1097.850950 0.087198 8.330984 -0.793370 0.169426 -3.649107 -1.002191 0.254669 0.397877 0.098503 0.224898 -0.755571 -0.162426 -0.595077 -9.416486 -0.537007 0.000000 0.000000 0.000000 5.060137 4.337592 0.531370 -0.247198 4.671693 3.557264 -0.184956 -3.563012 -2.340663 0.000000 0.000000 0.000000 -0.162025 3.495617 5.843698 0.867011 5.668138 -3.212262 0.511842 -10.086075 1.591568 0.000000 0.000000 0.000000 0.131303 -6.504158 -1.169358 -0.357096 0.864195 2.085917 -0.143595 0.528535 0.042939 0.000000 0.000000 0.000000 1.184175 -7.991746 4.018140 1.622139 1.428171 -1.737589 1.325914 0.484857 0.570602 0.000000 0.000000 0.000000 
118.304000 -142.649990 1098.224000 0.424450 8.989332 -0.744452 0.135156 -3.610471 -1.118114 0.222822 0.380349 0.117048 0.191197 -0.731695 -0.177182 -0.644157 -10.182115 -0.605542 0.000000 0.000000 0.000000 5.478624 4.332116 0.859160 -0.272361 4.806683 3.398840 -0.334964 -2.456365 -2.763905 0.000000 0.000000 0.000000 -0.516116 3.568226 6.032141 0.773453 5.808437 -3.028973 0.546046 -8.676770 2.112315 0.000000 0.000000 0.000000 0.033052 -7.335864 -0.879743 -0.459435 1.971633 1.772713 -0.237005 0.325640 -0.037368 0.000000 0.000000 0.000000 1.177588 -8.836044 3.976935 1.592017 2.456247 -1.484929 1.335467 0.221388 0.556838 0.000000 0.000000 0.000000 
125.120000 -145.108990 1098.527950 0.806286 9.097392 -0.756073 0.181058 -3.344678 -1.171806 0.270267 0.375428 0.206147 0.231084 -0.634227 -0.224967 -0.646982 -10.340973 -0.691963 0.000000 0.000000 0.000000 5.569990 4.191503 1.213552 -0.304873 4.784527 3.101365 -0.538255 -0.877196 -3.259346 0.000000 0.000000 0.000000 -1.266172 3.119467 6.082944 0.515689 5.399821 -2.700449 0.566232 -4.987980 3.163993 0.000000 0.000000 0.000000 -0.063852 -7.827451 -0.386554 -0.530008 3.677361 1.237541 -0.301925 -0.006196 -0.130858 0.000000 0.000000 0.000000 1.174337 -9.496904 3.780583 1.514007 4.395822 -0.697438 1.380494 -0.347607 0.537450 0.000000 0.000000 0.000000 
131.164990 -147.042010 1098.932010 1.089747 8.969756 -0.829278 0.223306 -2.850296 -1.117233 0.304688 0.369373 0.270355 0.260414 -0.513385 -0.256757 -0.642677 -10.180355 -0.696335 0.000000 0.000000 0.000000 5.600097 3.997139 1.294055 -0.356028 4.673624 2.704257 -0.664382 -0.033290 -3.582895 0.000000 0.000000 0.000000 -2.108104 2.630755 6.126107 0.261071 4.976312 -2.410462 0.556905 -1.698227 4.020478 0.000000 0.000000 0.000000 -0.124764 -8.450251 0.073832 -0.599227 6.094874 0.806304 -0.328635 -0.545704 -0.248840 0.000000 0.000000 0.000000 1.187815 -10.262508 3.563048 1.442450 7.011469 0.223588 1.473308 -1.049181 0.528078 0.000000 0.000000 0.000000 
135.297000 -147.692990 1099.595950 1.176075 8.777940 -0.989242 0.187708 -1.993790 -0.855595 0.243850 0.378671 0.220526 0.204910 -0.423679 -0.220949 -0.658260 -9.885454 -0.557681 0.000000 0.000000 0.000000 5.818296 3.807551 0.781309 -0.421284 4.509079 2.271111 -0.598409 -0.947394 -3.587297 0.000000 0.000000 0.000000 -2.915148 2.334346 6.512434 0.174481 4.978684 -2.698293 0.573125 -0.769979 4.384260 0.000000 0.000000 0.000000 -0.101255 -9.717683 0.327322 -0.681252 9.754077 0.727107 -0.285944 -1.437688 -0.406582 0.000000 0.000000 0.000000 1.227471 -11.485982 3.396761 1.413596 10.512811 1.063288 1.641269 -1.871540 0.539494 0.000000 0.000000 0.000000 
137.841000 -147.335010 1100.456050 1.112216 8.379034 -1.217953 0.103552 -0.710137 -0.454010 0.130872 0.372106 0.116482 0.104357 -0.348603 -0.137409 -0.679921 -9.344781 -0.315111 0.000000 0.000000 0.000000 6.111761 3.577228 -0.159907 -0.513151 4.272784 1.727595 -0.406671 -3.153756 -3.364438 0.000000 0.000000 0.000000 -3.787970 2.038172 7.234924 0.188822 5.212645 -3.528464 0.621107 -1.184669 4.553796 0.000000 0.000000 0.000000 -0.002398 -11.415505 0.442148 -0.753377 14.555389 0.868771 -0.179178 -2.340926 -0.539111 0.000000 0.000000 0.000000 1.294642 -13.009952 3.210500 1.414528 14.913327 1.963716 1.917504 -2.585999 0.597153 0.000000 0.000000 0.000000 
